<svg width="200" height="150" viewBox="0 0 200 150" fill="none" xmlns="http://www.w3.org/2000/svg">
<path d="M177.427 100.505H23.6927V136.329H177.427V100.505Z" fill="#F6F3F1"/>
<path d="M177.427 100.505H23.6929V136.329H177.427V100.505Z" fill="black" fill-opacity="0.53"/>
<path d="M177.427 110.919H97.7347V141.692H177.427V110.919Z" fill="#F6F3F1"/>
<path d="M172.402 138.568H102.76C101.51 138.568 100.495 137.552 100.495 136.303V124.509C100.495 123.259 101.51 122.244 102.76 122.244H172.402C173.652 122.244 174.667 123.259 174.667 124.509V136.303C174.667 137.552 173.652 138.568 172.402 138.568Z" fill="#4382FF"/>
<path d="M181.593 118.756H19.5277C17.3668 118.756 15.6225 117.012 15.6225 114.851C15.6225 112.69 17.3668 110.945 19.5277 110.945H181.593C183.754 110.945 185.499 112.69 185.499 114.851C185.499 116.985 183.754 118.756 181.593 118.756Z" fill="#1F1E1F"/>
<path d="M138.505 132.111C139.44 132.111 140.197 131.354 140.197 130.419C140.197 129.485 139.44 128.727 138.505 128.727C137.571 128.727 136.813 129.485 136.813 130.419C136.813 131.354 137.571 132.111 138.505 132.111Z" fill="#F6F3F1"/>
<path d="M197.5 99.334H34.3675V101.677H197.5V99.334Z" fill="#F6F3F1"/>
<path d="M132.752 65.2545H116.272V98.4745H132.752V65.2545Z" fill="#4382FF"/>
<path d="M174.538 82.7757H74.513C73.2633 82.7757 72.248 81.7605 72.248 80.5107V36.4342C72.248 35.1845 73.2633 34.1693 74.513 34.1693H174.538C175.788 34.1693 176.803 35.1845 176.803 36.4342V80.5368C176.803 81.7865 175.788 82.7757 174.538 82.7757Z" fill="#F6F3F1"/>
<path opacity="0.25" d="M170.32 48.0977H78.7302C77.5847 48.0977 76.6735 47.1867 76.6735 46.041C76.6735 44.8955 77.5847 43.9845 78.7302 43.9845H170.346C171.492 43.9845 172.403 44.8955 172.403 46.041C172.403 47.1605 171.466 48.0977 170.32 48.0977Z" fill="#91A1F5"/>
<path opacity="0.25" d="M91.9297 78.2718H79.5632C77.9492 78.2718 76.6475 76.97 76.6475 75.356V52.7318C76.6475 51.1178 77.9492 49.816 79.5632 49.816H91.9297C93.544 49.816 94.8457 51.1178 94.8457 52.7318V75.356C94.8457 76.97 93.544 78.2718 91.9297 78.2718Z" fill="#91A1F5"/>
<path opacity="0.25" d="M113.174 62.4427H100.443C99.5583 62.4427 98.8292 61.7137 98.8292 60.8285V54.0075C98.8292 53.1222 99.5583 52.3932 100.443 52.3932H113.174C114.059 52.3932 114.788 53.1222 114.788 54.0075V60.8285C114.814 61.7137 114.085 62.4427 113.174 62.4427Z" fill="#91A1F5"/>
<path opacity="0.25" d="M131.659 62.4427H118.928C118.043 62.4427 117.314 61.7137 117.314 60.8285V54.0075C117.314 53.1222 118.043 52.3932 118.928 52.3932H131.659C132.544 52.3932 133.273 53.1222 133.273 54.0075V60.8285C133.299 61.7137 132.571 62.4427 131.659 62.4427Z" fill="#91A1F5"/>
<path opacity="0.25" d="M150.143 62.4427H137.412C136.527 62.4427 135.798 61.7137 135.798 60.8285V54.0075C135.798 53.1222 136.527 52.3932 137.412 52.3932H150.143C151.028 52.3932 151.757 53.1222 151.757 54.0075V60.8285C151.783 61.7137 151.054 62.4427 150.143 62.4427Z" fill="#91A1F5"/>
<path opacity="0.25" d="M168.628 62.4427H155.897C155.012 62.4427 154.283 61.7137 154.283 60.8285V54.0075C154.283 53.1222 155.012 52.3932 155.897 52.3932H168.628C169.513 52.3932 170.242 53.1222 170.242 54.0075V60.8285C170.268 61.7137 169.539 62.4427 168.628 62.4427Z" fill="#91A1F5"/>
<path d="M103.177 110.92H62.7972C62.2245 110.92 61.7298 110.451 61.7298 109.852V107.899C61.7298 107.327 62.1985 106.832 62.7972 106.832H101.225C102.891 106.832 104.244 108.186 104.244 109.852C104.244 110.451 103.776 110.92 103.177 110.92Z" fill="#4382FF"/>
<path opacity="0.25" d="M113.174 74.2365H100.443C99.5583 74.2365 98.8292 73.5075 98.8292 72.6223V65.8012C98.8292 64.916 99.5583 64.187 100.443 64.187H113.174C114.059 64.187 114.788 64.916 114.788 65.8012V72.6223C114.814 73.5075 114.085 74.2365 113.174 74.2365Z" fill="#91A1F5"/>
<path opacity="0.25" d="M131.659 74.2365H118.928C118.043 74.2365 117.314 73.5075 117.314 72.6223V65.8012C117.314 64.916 118.043 64.187 118.928 64.187H131.659C132.544 64.187 133.273 64.916 133.273 65.8012V72.6223C133.299 73.5075 132.571 74.2365 131.659 74.2365Z" fill="#91A1F5"/>
<path opacity="0.25" d="M150.143 74.2365H137.412C136.527 74.2365 135.798 73.5075 135.798 72.6223V65.8012C135.798 64.916 136.527 64.187 137.412 64.187H150.143C151.028 64.187 151.757 64.916 151.757 65.8012V72.6223C151.783 73.5075 151.054 74.2365 150.143 74.2365Z" fill="#91A1F5"/>
<path opacity="0.25" d="M168.628 74.2365H155.897C155.012 74.2365 154.283 73.5075 154.283 72.6223V65.8012C154.283 64.916 155.012 64.187 155.897 64.187H168.628C169.513 64.187 170.242 64.916 170.242 65.8012V72.6223C170.268 73.5075 169.539 74.2365 168.628 74.2365Z" fill="#91A1F5"/>
<path opacity="0.67" d="M160.479 46.041H73.4707C71.6222 46.041 70.1123 44.531 70.1123 42.6825V8.26472C70.1123 6.41625 71.6222 4.90625 73.4707 4.90625H160.452C162.301 4.90625 163.811 6.41625 163.811 8.26472V42.6565C163.837 44.531 162.327 46.041 160.479 46.041Z" fill="#91A1F5"/>
<path d="M51.9925 46.041H11.7691C9.92065 46.041 8.41065 44.531 8.41065 42.6825V8.26472C8.41065 6.41625 9.92065 4.90625 11.7691 4.90625H51.9925C53.841 4.90625 55.351 6.41625 55.351 8.26472V42.6565C55.351 44.531 53.841 46.041 51.9925 46.041Z" fill="#1F1E1F"/>
<path d="M123.953 78.2718H100.079C99.6363 78.2718 99.2458 77.9075 99.2458 77.4388V66.0615C99.2458 65.619 99.6103 65.2285 100.079 65.2285H123.953C124.395 65.2285 124.786 65.593 124.786 66.0615V77.4388C124.786 77.9075 124.421 78.2718 123.953 78.2718Z" fill="#1F1E1F"/>
<path d="M122.574 76.7097H101.485C101.199 76.7097 100.965 76.4755 100.965 76.1892C100.965 75.9027 101.199 75.6685 101.485 75.6685H122.574C122.86 75.6685 123.094 75.9027 123.094 76.1892C123.094 76.4755 122.86 76.7097 122.574 76.7097Z" fill="#4382FF"/>
<path d="M103.178 67.5975H100.835C100.548 67.5975 100.314 67.3633 100.314 67.0768C100.314 66.7905 100.548 66.5563 100.835 66.5563H103.178C103.464 66.5563 103.699 66.7905 103.699 67.0768C103.699 67.3633 103.464 67.5975 103.178 67.5975Z" fill="#4382FF"/>
<path d="M122.964 67.5975H120.621C120.335 67.5975 120.1 67.3633 120.1 67.0768C120.1 66.7905 120.335 66.5563 120.621 66.5563H122.964C123.25 66.5563 123.485 66.7905 123.485 67.0768C123.485 67.3633 123.25 67.5975 122.964 67.5975Z" fill="#4382FF"/>
<path d="M119.059 67.5975H116.715C116.429 67.5975 116.195 67.3633 116.195 67.0768C116.195 66.7905 116.429 66.5563 116.715 66.5563H119.059C119.345 66.5563 119.579 66.7905 119.579 67.0768C119.579 67.3633 119.345 67.5975 119.059 67.5975Z" fill="#4382FF"/>
<path d="M152.851 78.2718H128.977C128.535 78.2718 128.145 77.9075 128.145 77.4388V66.0615C128.145 65.619 128.509 65.2285 128.977 65.2285H152.851C153.294 65.2285 153.684 65.593 153.684 66.0615V77.4388C153.684 77.9075 153.32 78.2718 152.851 78.2718Z" fill="#1F1E1F"/>
<path d="M151.472 76.7097H130.384C130.098 76.7097 129.863 76.4755 129.863 76.1892C129.863 75.9027 130.098 75.6685 130.384 75.6685H151.472C151.759 75.6685 151.993 75.9027 151.993 76.1892C151.993 76.4755 151.759 76.7097 151.472 76.7097Z" fill="#4382FF"/>
<path d="M132.077 67.5975H129.733C129.447 67.5975 129.213 67.3633 129.213 67.0768C129.213 66.7905 129.447 66.5563 129.733 66.5563H132.077C132.363 66.5563 132.597 66.7905 132.597 67.0768C132.597 67.3633 132.363 67.5975 132.077 67.5975Z" fill="#4382FF"/>
<path d="M151.863 67.5975H149.52C149.233 67.5975 148.999 67.3633 148.999 67.0768C148.999 66.7905 149.233 66.5563 149.52 66.5563H151.863C152.149 66.5563 152.383 66.7905 152.383 67.0768C152.383 67.3633 152.149 67.5975 151.863 67.5975Z" fill="#4382FF"/>
<path d="M147.957 67.5975H145.614C145.328 67.5975 145.093 67.3633 145.093 67.0768C145.093 66.7905 145.328 66.5563 145.614 66.5563H147.957C148.243 66.5563 148.478 66.7905 148.478 67.0768C148.478 67.3633 148.243 67.5975 147.957 67.5975Z" fill="#4382FF"/>
<path d="M50.3785 25.213H13.4094C12.9668 25.213 12.5763 24.8486 12.5763 24.38V9.07162C12.5763 8.62905 12.9408 8.23853 13.4094 8.23853H50.3525C50.7952 8.23853 51.1858 8.603 51.1858 9.07162V24.38C51.1858 24.8226 50.8213 25.213 50.3785 25.213Z" fill="#F6F3F1"/>
<path d="M49.5195 21.8288H14.2687C13.9823 21.8288 13.748 21.5944 13.748 21.3081C13.748 21.0217 13.9823 20.7874 14.2687 20.7874H49.5195C49.806 20.7874 50.0403 21.0217 50.0403 21.3081C50.0403 21.5944 49.806 21.8288 49.5195 21.8288Z" fill="black" fill-opacity="0.39"/>
<path d="M49.7798 29.6652H13.097C12.8106 29.6652 12.5763 29.4307 12.5763 29.1445C12.5763 28.858 12.8106 28.6237 13.097 28.6237H49.7538C50.0403 28.6237 50.2745 28.858 50.2745 29.1445C50.3005 29.4307 50.0663 29.6652 49.7798 29.6652Z" fill="#4382FF"/>
<path d="M28.978 31.93H13.097C12.8106 31.93 12.5763 31.6957 12.5763 31.4092C12.5763 31.123 12.8106 30.8887 13.097 30.8887H28.978C29.2645 30.8887 29.4988 31.123 29.4988 31.4092C29.4988 31.6957 29.2905 31.93 28.978 31.93Z" fill="#4382FF"/>
<path d="M28.978 34.1952H13.097C12.8106 34.1952 12.5763 33.961 12.5763 33.6745C12.5763 33.388 12.8106 33.1537 13.097 33.1537H28.978C29.2645 33.1537 29.4988 33.388 29.4988 33.6745C29.4988 33.961 29.2905 34.1952 28.978 34.1952Z" fill="#4382FF"/>
<path d="M28.978 36.434H13.097C12.8106 36.434 12.5763 36.1997 12.5763 35.9132C12.5763 35.627 12.8106 35.3925 13.097 35.3925H28.978C29.2645 35.3925 29.4988 35.627 29.4988 35.9132C29.4988 36.2257 29.2905 36.434 28.978 36.434Z" fill="#4382FF"/>
<path d="M28.978 38.699H13.097C12.8106 38.699 12.5763 38.4647 12.5763 38.1785C12.5763 37.892 12.8106 37.6577 13.097 37.6577H28.978C29.2645 37.6577 29.4988 37.892 29.4988 38.1785C29.4988 38.4647 29.2905 38.699 28.978 38.699Z" fill="#4382FF"/>
<path d="M22.2352 40.9642H13.1231C12.8367 40.9642 12.6024 40.73 12.6024 40.4435C12.6024 40.1572 12.8367 39.9227 13.1231 39.9227H22.2352C22.5216 39.9227 22.7559 40.1572 22.7559 40.4435C22.7559 40.73 22.5216 40.9642 22.2352 40.9642Z" fill="#4382FF"/>
<path d="M17.0807 11.1547H14.7375C14.4512 11.1547 14.2169 10.9203 14.2169 10.634C14.2169 10.3476 14.4512 10.1133 14.7375 10.1133H17.0807C17.3671 10.1133 17.6014 10.3476 17.6014 10.634C17.6014 10.9203 17.3671 11.1547 17.0807 11.1547Z" fill="black" fill-opacity="0.39"/>
<path d="M49.155 11.1547H46.8117C46.5255 11.1547 46.291 10.9203 46.291 10.634C46.291 10.3476 46.5255 10.1133 46.8117 10.1133H49.155C49.4412 10.1133 49.6755 10.3476 49.6755 10.634C49.6755 10.9203 49.4412 11.1547 49.155 11.1547Z" fill="black" fill-opacity="0.39"/>
<path d="M45.2492 11.1547H42.9062C42.6197 11.1547 42.3855 10.9203 42.3855 10.634C42.3855 10.3476 42.6197 10.1133 42.9062 10.1133H45.2492C45.5357 10.1133 45.77 10.3476 45.77 10.634C45.77 10.9203 45.5357 11.1547 45.2492 11.1547Z" fill="black" fill-opacity="0.39"/>
<path d="M15.3879 27.4263H13.0448C12.7584 27.4263 12.5241 27.1918 12.5241 26.9055C12.5241 26.619 12.7584 26.3848 13.0448 26.3848H15.3879C15.6743 26.3848 15.9086 26.619 15.9086 26.9055C15.9086 27.1918 15.6743 27.4263 15.3879 27.4263Z" fill="#4382FF"/>
<path d="M49.415 27.4263H47.0718C46.7855 27.4263 46.5513 27.1918 46.5513 26.9055C46.5513 26.619 46.7855 26.3848 47.0718 26.3848H49.415C49.7013 26.3848 49.9357 26.619 49.9357 26.9055C49.9357 27.1918 49.7013 27.4263 49.415 27.4263Z" fill="#4382FF"/>
<path d="M45.5103 27.4263H43.1673C42.8808 27.4263 42.6465 27.1918 42.6465 26.9055C42.6465 26.619 42.8808 26.3848 43.1673 26.3848H45.5103C45.7968 26.3848 46.031 26.619 46.031 26.9055C46.031 27.1918 45.7968 27.4263 45.5103 27.4263Z" fill="#4382FF"/>
<path d="M49.5202 31.93H33.639C33.3527 31.93 33.1185 31.6957 33.1185 31.4092C33.1185 31.123 33.3527 30.8887 33.639 30.8887H49.5202C49.8065 30.8887 50.041 31.123 50.041 31.4092C50.041 31.6957 49.8065 31.93 49.5202 31.93Z" fill="#4382FF"/>
<path d="M49.5202 34.1952H33.639C33.3527 34.1952 33.1185 33.961 33.1185 33.6745C33.1185 33.388 33.3527 33.1537 33.639 33.1537H49.5202C49.8065 33.1537 50.041 33.388 50.041 33.6745C50.041 33.961 49.8065 34.1952 49.5202 34.1952Z" fill="#4382FF"/>
<path d="M49.5202 36.434H33.639C33.3527 36.434 33.1185 36.1997 33.1185 35.9132C33.1185 35.627 33.3527 35.3925 33.639 35.3925H49.5202C49.8065 35.3925 50.041 35.627 50.041 35.9132C50.041 36.2257 49.8065 36.434 49.5202 36.434Z" fill="#4382FF"/>
<path d="M49.5202 38.699H33.639C33.3527 38.699 33.1185 38.4647 33.1185 38.1785C33.1185 37.892 33.3527 37.6577 33.639 37.6577H49.5202C49.8065 37.6577 50.041 37.892 50.041 38.1785C50.041 38.4647 49.8065 38.699 49.5202 38.699Z" fill="#4382FF"/>
<path d="M42.7513 40.9642H33.639C33.3527 40.9642 33.1185 40.73 33.1185 40.4435C33.1185 40.1572 33.3527 39.9227 33.639 39.9227H42.7513C43.0375 39.9227 43.272 40.1572 43.272 40.4435C43.272 40.73 43.0375 40.9642 42.7513 40.9642Z" fill="#4382FF"/>
<path d="M181.75 78.2718H157.876C157.434 78.2718 157.043 77.9075 157.043 77.4388V66.0615C157.043 65.619 157.408 65.2285 157.876 65.2285H181.75C182.193 65.2285 182.583 65.593 182.583 66.0615V77.4388C182.583 77.9075 182.219 78.2718 181.75 78.2718Z" fill="#1F1E1F"/>
<path d="M180.37 76.7097H159.283C158.996 76.7097 158.762 76.4755 158.762 76.1892C158.762 75.9027 158.996 75.6685 159.283 75.6685H180.37C180.657 75.6685 180.891 75.9027 180.891 76.1892C180.891 76.4755 180.657 76.7097 180.37 76.7097Z" fill="#F6F3F1"/>
<path d="M160.975 67.5975H158.632C158.346 67.5975 158.111 67.3633 158.111 67.0768C158.111 66.7905 158.346 66.5563 158.632 66.5563H160.975C161.262 66.5563 161.496 66.7905 161.496 67.0768C161.496 67.3633 161.262 67.5975 160.975 67.5975Z" fill="#F6F3F1"/>
<path d="M180.761 67.5975H178.418C178.132 67.5975 177.897 67.3633 177.897 67.0768C177.897 66.7905 178.132 66.5563 178.418 66.5563H180.761C181.047 66.5563 181.282 66.7905 181.282 67.0768C181.282 67.3633 181.047 67.5975 180.761 67.5975Z" fill="#F6F3F1"/>
<path d="M176.855 67.5975H174.512C174.226 67.5975 173.992 67.3633 173.992 67.0768C173.992 66.7905 174.226 66.5563 174.512 66.5563H176.855C177.142 66.5563 177.376 66.7905 177.376 67.0768C177.376 67.3633 177.142 67.5975 176.855 67.5975Z" fill="#F6F3F1"/>
<path d="M87.7245 15.5804H62.627C62.0022 15.5804 61.5078 15.0857 61.5078 14.4609V9.67052C61.5078 9.04567 62.0022 8.55103 62.627 8.55103H87.7245C88.3493 8.55103 88.844 9.04567 88.844 9.67052V14.4609C88.844 15.0597 88.3493 15.5804 87.7245 15.5804ZM62.627 8.81137C62.1585 8.81137 61.768 9.2019 61.768 9.67052V14.4609C61.768 14.9295 62.1585 15.32 62.627 15.32H87.7245C88.1933 15.32 88.5837 14.9295 88.5837 14.4609V9.67052C88.5837 9.2019 88.1933 8.81137 87.7245 8.81137H62.627Z" fill="#1F1E1F"/>
<path d="M86.9827 22.3495H63.109C62.6665 22.3495 62.276 21.985 62.276 21.5164V10.1393C62.276 9.69668 62.6405 9.30615 63.109 9.30615H86.9827C87.4255 9.30615 87.816 9.67063 87.816 10.1393V21.5164C87.816 21.959 87.4515 22.3495 86.9827 22.3495Z" fill="#F6F3F1"/>
<path d="M85.6035 20.7872H64.5155C64.2293 20.7872 63.9948 20.5529 63.9948 20.2666C63.9948 19.9802 64.2293 19.7458 64.5155 19.7458H85.6035C85.89 19.7458 86.1243 19.9802 86.1243 20.2666C86.1243 20.5529 85.89 20.7872 85.6035 20.7872Z" fill="black" fill-opacity="0.39"/>
<path d="M66.207 11.6752H63.864C63.5775 11.6752 63.3433 11.4409 63.3433 11.1545C63.3433 10.8681 63.5775 10.6338 63.864 10.6338H66.207C66.4935 10.6338 66.7278 10.8681 66.7278 11.1545C66.7278 11.4409 66.4935 11.6752 66.207 11.6752Z" fill="black" fill-opacity="0.39"/>
<path d="M85.9942 11.6752H83.651C83.3648 11.6752 83.1302 11.4409 83.1302 11.1545C83.1302 10.8681 83.3648 10.6338 83.651 10.6338H85.9942C86.2805 10.6338 86.5147 10.8681 86.5147 11.1545C86.5147 11.4409 86.2805 11.6752 85.9942 11.6752Z" fill="black" fill-opacity="0.39"/>
<path d="M82.0885 11.6752H79.7455C79.459 11.6752 79.2247 11.4409 79.2247 11.1545C79.2247 10.8681 79.459 10.6338 79.7455 10.6338H82.0885C82.375 10.6338 82.6093 10.8681 82.6093 11.1545C82.6093 11.4409 82.375 11.6752 82.0885 11.6752Z" fill="black" fill-opacity="0.39"/>
<path d="M85.0567 18.7045H64.8278C64.307 18.7045 63.8905 18.288 63.8905 17.7673V13.6538C63.8905 13.1331 64.307 12.7165 64.8278 12.7165H85.0567C85.5772 12.7165 85.994 13.1331 85.994 13.6538V17.7412C85.994 18.2619 85.5772 18.7045 85.0567 18.7045Z" fill="#1F1E1F"/>
<path d="M74.278 14.9818V16.674C74.278 16.8563 74.4863 16.9865 74.6425 16.8563L75.84 15.9971C75.9702 15.893 75.9702 15.7108 75.84 15.6066L74.6425 14.7475C74.4863 14.6694 74.278 14.7995 74.278 14.9818Z" fill="#4382FF"/>
<path d="M120.008 15.5804H94.9102C94.2855 15.5804 93.7907 15.0857 93.7907 14.4609V9.67052C93.7907 9.04567 94.2855 8.55103 94.9102 8.55103H120.008C120.633 8.55103 121.127 9.04567 121.127 9.67052V14.4609C121.127 15.0597 120.633 15.5804 120.008 15.5804ZM94.9102 8.81137C94.4417 8.81137 94.0512 9.2019 94.0512 9.67052V14.4609C94.0512 14.9295 94.4417 15.32 94.9102 15.32H120.008C120.476 15.32 120.867 14.9295 120.867 14.4609V9.67052C120.867 9.2019 120.476 8.81137 120.008 8.81137H94.9102Z" fill="#1F1E1F"/>
<path d="M119.266 22.3495H95.3923C94.9495 22.3495 94.559 21.985 94.559 21.5164V10.1393C94.559 9.69668 94.9235 9.30615 95.3923 9.30615H119.266C119.708 9.30615 120.099 9.67063 120.099 10.1393V21.5164C120.099 21.959 119.734 22.3495 119.266 22.3495Z" fill="#F6F3F1"/>
<path d="M117.887 20.7872H96.7988C96.5123 20.7872 96.278 20.5529 96.278 20.2666C96.278 19.9802 96.5123 19.7458 96.7988 19.7458H117.887C118.173 19.7458 118.408 19.9802 118.408 20.2666C118.408 20.5529 118.173 20.7872 117.887 20.7872Z" fill="black" fill-opacity="0.39"/>
<path d="M98.4902 11.6752H96.147C95.8608 11.6752 95.6263 11.4409 95.6263 11.1545C95.6263 10.8681 95.8608 10.6338 96.147 10.6338H98.4902C98.7765 10.6338 99.0107 10.8681 99.0107 11.1545C99.0107 11.4409 98.7765 11.6752 98.4902 11.6752Z" fill="black" fill-opacity="0.39"/>
<path d="M118.277 11.6752H115.934C115.648 11.6752 115.413 11.4409 115.413 11.1545C115.413 10.8681 115.648 10.6338 115.934 10.6338H118.277C118.564 10.6338 118.798 10.8681 118.798 11.1545C118.798 11.4409 118.564 11.6752 118.277 11.6752Z" fill="black" fill-opacity="0.39"/>
<path d="M114.372 11.6752H112.029C111.742 11.6752 111.508 11.4409 111.508 11.1545C111.508 10.8681 111.742 10.6338 112.029 10.6338H114.372C114.658 10.6338 114.893 10.8681 114.893 11.1545C114.893 11.4409 114.658 11.6752 114.372 11.6752Z" fill="black" fill-opacity="0.39"/>
<path d="M117.34 18.7045H97.1107C96.5902 18.7045 96.1735 18.288 96.1735 17.7673V13.6538C96.1735 13.1331 96.5902 12.7165 97.1107 12.7165H117.34C117.861 12.7165 118.277 13.1331 118.277 13.6538V17.7412C118.277 18.2619 117.861 18.7045 117.34 18.7045Z" fill="#1F1E1F"/>
<path d="M106.561 14.9818V16.674C106.561 16.8563 106.769 16.9865 106.925 16.8563L108.123 15.9971C108.253 15.893 108.253 15.7108 108.123 15.6066L106.925 14.7475C106.769 14.6694 106.561 14.7995 106.561 14.9818Z" fill="#4382FF"/>
<path d="M152.291 15.5804H127.193C126.569 15.5804 126.074 15.0857 126.074 14.4609V9.67052C126.074 9.04567 126.569 8.55103 127.193 8.55103H152.291C152.916 8.55103 153.411 9.04567 153.411 9.67052V14.4609C153.411 15.0597 152.916 15.5804 152.291 15.5804ZM127.193 8.81137C126.725 8.81137 126.335 9.2019 126.335 9.67052V14.4609C126.335 14.9295 126.725 15.32 127.193 15.32H152.291C152.76 15.32 153.15 14.9295 153.15 14.4609V9.67052C153.15 9.2019 152.76 8.81137 152.291 8.81137H127.193Z" fill="#1F1E1F"/>
<path d="M151.549 22.3495H127.675C127.233 22.3495 126.842 21.985 126.842 21.5164V10.1393C126.842 9.69668 127.207 9.30615 127.675 9.30615H151.549C151.991 9.30615 152.382 9.67063 152.382 10.1393V21.5164C152.382 21.959 152.018 22.3495 151.549 22.3495Z" fill="#F6F3F1"/>
<path d="M150.169 20.7872H129.081C128.794 20.7872 128.56 20.5529 128.56 20.2666C128.56 19.9802 128.794 19.7458 129.081 19.7458H150.169C150.455 19.7458 150.689 19.9802 150.689 20.2666C150.689 20.5529 150.455 20.7872 150.169 20.7872Z" fill="black" fill-opacity="0.39"/>
<path d="M130.773 11.6752H128.43C128.144 11.6752 127.91 11.4409 127.91 11.1545C127.91 10.8681 128.144 10.6338 128.43 10.6338H130.773C131.06 10.6338 131.294 10.8681 131.294 11.1545C131.294 11.4409 131.06 11.6752 130.773 11.6752Z" fill="black" fill-opacity="0.39"/>
<path d="M150.559 11.6752H148.216C147.93 11.6752 147.695 11.4409 147.695 11.1545C147.695 10.8681 147.93 10.6338 148.216 10.6338H150.559C150.846 10.6338 151.08 10.8681 151.08 11.1545C151.08 11.4409 150.846 11.6752 150.559 11.6752Z" fill="black" fill-opacity="0.39"/>
<path d="M146.655 11.6752H144.312C144.025 11.6752 143.791 11.4409 143.791 11.1545C143.791 10.8681 144.025 10.6338 144.312 10.6338H146.655C146.941 10.6338 147.176 10.8681 147.176 11.1545C147.176 11.4409 146.941 11.6752 146.655 11.6752Z" fill="black" fill-opacity="0.39"/>
<path d="M149.623 18.7045H129.394C128.873 18.7045 128.457 18.288 128.457 17.7673V13.6538C128.457 13.1331 128.873 12.7165 129.394 12.7165H149.623C150.144 12.7165 150.56 13.1331 150.56 13.6538V17.7412C150.56 18.2619 150.144 18.7045 149.623 18.7045Z" fill="#1F1E1F"/>
<path d="M138.844 14.9818V16.674C138.844 16.8563 139.053 16.9865 139.209 16.8563L140.406 15.9971C140.536 15.893 140.536 15.7108 140.406 15.6066L139.209 14.7475C139.053 14.6694 138.844 14.7995 138.844 14.9818Z" fill="#4382FF"/>
<path d="M99.1937 33.284H74.0963C73.4715 33.284 72.9768 32.7892 72.9768 32.1645V27.3742C72.9768 26.7492 73.4715 26.2547 74.0963 26.2547H99.1937C99.8185 26.2547 100.313 26.7492 100.313 27.3742V32.1645C100.313 32.7632 99.8185 33.284 99.1937 33.284ZM74.0963 26.515C73.6278 26.515 73.2373 26.9055 73.2373 27.3742V32.1645C73.2373 32.633 73.6278 33.0237 74.0963 33.0237H99.1937C99.6622 33.0237 100.053 32.633 100.053 32.1645V27.3742C100.053 26.9055 99.6622 26.515 99.1937 26.515H74.0963Z" fill="#4382FF"/>
<path d="M97.3185 38.4907H76.2305C75.944 38.4907 75.7097 38.2565 75.7097 37.9702C75.7097 37.6837 75.944 37.4495 76.2305 37.4495H97.3185C97.6047 37.4495 97.8392 37.6837 97.8392 37.9702C97.8392 38.2565 97.6047 38.4907 97.3185 38.4907Z" fill="#F6F3F1"/>
<path d="M77.923 29.3788H75.5798C75.2935 29.3788 75.0592 29.1445 75.0592 28.858C75.0592 28.5718 75.2935 28.3375 75.5798 28.3375H77.923C78.2092 28.3375 78.4437 28.5718 78.4437 28.858C78.4437 29.1445 78.2092 29.3788 77.923 29.3788Z" fill="#F6F3F1"/>
<path d="M97.709 29.3788H95.366C95.0795 29.3788 94.8453 29.1445 94.8453 28.858C94.8453 28.5718 95.0795 28.3375 95.366 28.3375H97.709C97.9955 28.3375 98.2298 28.5718 98.2298 28.858C98.2298 29.1445 97.9955 29.3788 97.709 29.3788Z" fill="#F6F3F1"/>
<path d="M93.8045 29.3788H91.4613C91.175 29.3788 90.9405 29.1445 90.9405 28.858C90.9405 28.5718 91.175 28.3375 91.4613 28.3375H93.8045C94.0907 28.3375 94.325 28.5718 94.325 28.858C94.325 29.1445 94.0907 29.3788 93.8045 29.3788Z" fill="#F6F3F1"/>
<path d="M96.7725 36.4082H76.5435C76.023 36.4082 75.6062 35.9918 75.6062 35.471V31.3835C75.6062 30.8627 76.023 30.4463 76.5435 30.4463H96.7725C97.2932 30.4463 97.7097 30.8627 97.7097 31.3835V35.471C97.7097 35.9658 97.2932 36.4082 96.7725 36.4082Z" fill="#F6F3F1"/>
<path d="M85.9938 32.6853V34.3775C85.9938 34.5598 86.202 34.6898 86.3583 34.5598L87.556 33.7005C87.686 33.5965 87.686 33.4143 87.556 33.31L86.3583 32.4508C86.202 32.3728 85.9938 32.503 85.9938 32.6853Z" fill="#4382FF"/>
<path d="M128.092 33.284H102.995C102.37 33.284 101.875 32.7892 101.875 32.1645V27.3742C101.875 26.7492 102.37 26.2547 102.995 26.2547H128.092C128.717 26.2547 129.212 26.7492 129.212 27.3742V32.1645C129.212 32.7632 128.717 33.284 128.092 33.284ZM102.995 26.515C102.526 26.515 102.136 26.9055 102.136 27.3742V32.1645C102.136 32.633 102.526 33.0237 102.995 33.0237H128.092C128.561 33.0237 128.952 32.633 128.952 32.1645V27.3742C128.952 26.9055 128.561 26.515 128.092 26.515H102.995Z" fill="#4382FF"/>
<path d="M126.217 38.4907H105.129C104.842 38.4907 104.608 38.2565 104.608 37.9702C104.608 37.6837 104.842 37.4495 105.129 37.4495H126.217C126.504 37.4495 126.738 37.6837 126.738 37.9702C126.738 38.2565 126.504 38.4907 126.217 38.4907Z" fill="#F6F3F1"/>
<path d="M106.822 29.3788H104.479C104.192 29.3788 103.958 29.1445 103.958 28.858C103.958 28.5718 104.192 28.3375 104.479 28.3375H106.822C107.108 28.3375 107.342 28.5718 107.342 28.858C107.342 29.1445 107.108 29.3788 106.822 29.3788Z" fill="#F6F3F1"/>
<path d="M126.607 29.3788H124.265C123.978 29.3788 123.744 29.1445 123.744 28.858C123.744 28.5718 123.978 28.3375 124.265 28.3375H126.607C126.894 28.3375 127.128 28.5718 127.128 28.858C127.128 29.1445 126.894 29.3788 126.607 29.3788Z" fill="#F6F3F1"/>
<path d="M122.703 29.3788H120.36C120.073 29.3788 119.839 29.1445 119.839 28.858C119.839 28.5718 120.073 28.3375 120.36 28.3375H122.703C122.989 28.3375 123.224 28.5718 123.224 28.858C123.224 29.1445 122.989 29.3788 122.703 29.3788Z" fill="#F6F3F1"/>
<path d="M125.671 36.4082H105.442C104.922 36.4082 104.505 35.9918 104.505 35.471V31.3835C104.505 30.8627 104.922 30.4463 105.442 30.4463H125.671C126.192 30.4463 126.608 30.8627 126.608 31.3835V35.471C126.608 35.9658 126.192 36.4082 125.671 36.4082Z" fill="#F6F3F1"/>
<path d="M114.893 32.6853V34.3775C114.893 34.5598 115.101 34.6898 115.257 34.5598L116.454 33.7005C116.585 33.5965 116.585 33.4143 116.454 33.31L115.257 32.4508C115.101 32.3728 114.893 32.503 114.893 32.6853Z" fill="#4382FF"/>
<path d="M156.991 33.284H131.893C131.268 33.284 130.774 32.7892 130.774 32.1645V27.3742C130.774 26.7492 131.268 26.2547 131.893 26.2547H156.991C157.616 26.2547 158.11 26.7492 158.11 27.3742V32.1645C158.11 32.7632 157.616 33.284 156.991 33.284ZM131.893 26.515C131.425 26.515 131.034 26.9055 131.034 27.3742V32.1645C131.034 32.633 131.425 33.0237 131.893 33.0237H156.991C157.46 33.0237 157.85 32.633 157.85 32.1645V27.3742C157.85 26.9055 157.46 26.515 156.991 26.515H131.893Z" fill="#4382FF"/>
<path d="M155.115 38.4907H134.027C133.741 38.4907 133.507 38.2565 133.507 37.9702C133.507 37.6837 133.741 37.4495 134.027 37.4495H155.115C155.402 37.4495 155.636 37.6837 155.636 37.9702C155.636 38.2565 155.402 38.4907 155.115 38.4907Z" fill="#F6F3F1"/>
<path d="M135.72 29.3788H133.377C133.09 29.3788 132.856 29.1445 132.856 28.858C132.856 28.5718 133.09 28.3375 133.377 28.3375H135.72C136.007 28.3375 136.241 28.5718 136.241 28.858C136.241 29.1445 136.007 29.3788 135.72 29.3788Z" fill="#F6F3F1"/>
<path d="M155.506 29.3788H153.163C152.877 29.3788 152.642 29.1445 152.642 28.858C152.642 28.5718 152.877 28.3375 153.163 28.3375H155.506C155.793 28.3375 156.027 28.5718 156.027 28.858C156.027 29.1445 155.793 29.3788 155.506 29.3788Z" fill="#F6F3F1"/>
<path d="M151.602 29.3788H149.258C148.972 29.3788 148.738 29.1445 148.738 28.858C148.738 28.5718 148.972 28.3375 149.258 28.3375H151.602C151.888 28.3375 152.122 28.5718 152.122 28.858C152.122 29.1445 151.888 29.3788 151.602 29.3788Z" fill="#F6F3F1"/>
<path d="M154.57 36.4082H134.341C133.82 36.4082 133.404 35.9918 133.404 35.471V31.3835C133.404 30.8627 133.82 30.4463 134.341 30.4463H154.57C155.09 30.4463 155.507 30.8627 155.507 31.3835V35.471C155.507 35.9658 155.09 36.4082 154.57 36.4082Z" fill="#F6F3F1"/>
<path d="M143.791 32.6853V34.3775C143.791 34.5598 143.999 34.6898 144.156 34.5598L145.353 33.7005C145.483 33.5965 145.483 33.4143 145.353 33.31L144.156 32.4508C143.999 32.3728 143.791 32.503 143.791 32.6853Z" fill="#4382FF"/>
<path d="M150.951 99.3078H98.1003C98.1003 98.3965 98.8553 97.6415 99.7665 97.6415H149.284C150.196 97.6415 150.951 98.3965 150.951 99.3078Z" fill="#1F1E1F"/>
<path d="M62.7707 54.9448C61.8857 54.9448 60.714 54.8145 60.61 53.9295C60.558 53.5128 60.8702 53.1223 61.313 53.0703C61.5472 53.0443 61.7815 53.1485 61.9637 53.3045C62.094 53.3308 62.4585 53.4088 63.2915 53.3568C63.7602 53.3308 64.359 51.1438 64.4892 48.5143H61.7035C61.2607 48.5143 60.9225 48.1758 60.9225 47.7333C60.9225 47.2905 61.2607 46.9523 61.7035 46.9523H66.1032V47.7333C66.0772 49.842 65.7647 54.7885 63.3957 54.8928C63.1875 54.9188 62.9792 54.9448 62.7707 54.9448ZM62.146 53.7473C62.146 53.7473 62.146 53.7733 62.146 53.7473C62.146 53.7733 62.146 53.7473 62.146 53.7473Z" fill="#1F1E1F"/>
<path d="M62.302 63.6405C62.146 63.8488 61.9375 64.109 61.7033 64.3695C60.2453 65.9575 57.5378 68.1185 57.5378 68.1185L56.3923 62.1305L55.533 57.6005C55.533 57.6005 57.9803 47.0825 61.7815 47.0825C61.7815 47.0303 63.4215 62.0783 62.302 63.6405Z" fill="#F2A007"/>
<path d="M91.747 120.084C88.675 120.084 85.6287 118.678 83.6762 115.996L66.988 93.346C63.7077 88.894 64.645 82.6198 69.0967 79.3393C73.5487 76.059 79.823 76.9963 83.1035 81.4483L99.7917 104.098C103.072 108.55 102.135 114.825 97.683 118.105C95.8865 119.459 93.8037 120.084 91.747 120.084Z" fill="#F6F3F1"/>
<path d="M12.5237 113.184C8.74867 113.184 5.41625 110.425 4.81745 106.572C4.14055 102.302 7.05642 98.3185 11.3261 97.6415L25.489 95.4287C29.7588 94.7517 33.742 97.6677 34.4188 101.937C35.0958 106.207 32.1797 110.19 27.9102 110.867L13.7473 113.08C13.3308 113.158 12.9142 113.184 12.5237 113.184Z" fill="#F6F3F1"/>
<path d="M61.7035 64.3692L57.7463 68.3265L56.3925 62.1042L59.829 56.689L60.7142 64.0827L61.7035 64.3692Z" fill="#875300"/>
<path d="M12.524 113.184C10.4412 113.184 8.33238 112.533 6.53598 111.206C2.1101 107.899 1.17285 101.625 4.47925 97.173L16.9498 80.4587C20.2562 76.033 26.5305 75.0957 30.9825 78.402C35.4085 81.7085 36.3457 87.9828 33.0392 92.4348L20.5686 109.149C18.59 111.804 15.57 113.184 12.524 113.184Z" fill="#F6F3F1"/>
<path opacity="0.1" d="M12.524 113.184C10.4412 113.184 8.33238 112.533 6.53598 111.206C2.1101 107.899 1.17285 101.625 4.47925 97.173L16.9498 80.4587C20.2562 76.033 26.5305 75.0957 30.9825 78.402C35.4345 81.7085 36.3457 87.9828 33.0392 92.4348L20.5686 109.149C18.59 111.804 15.57 113.184 12.524 113.184Z" fill="#1E1E1E"/>
<path d="M61.1305 44.9475C61.1305 44.9475 61.0002 45.8327 60.792 47.2645C60.688 47.9935 60.5578 48.9047 60.4275 49.894C60.4015 50.0762 60.3755 50.2845 60.3495 50.4667C60.2452 51.1437 60.1672 51.8727 60.063 52.6017C59.985 53.1485 59.907 53.7212 59.8548 54.294C59.7248 55.2572 59.6205 56.2465 59.4902 57.2357C59.0998 60.438 58.7353 63.7185 58.527 66.348C58.501 66.6865 58.475 66.9987 58.449 67.3112C58.449 67.4155 58.423 67.4935 58.423 67.5977C58.3447 68.691 58.3188 69.6283 58.3447 70.3312C58.3447 70.93 58.397 71.3987 58.475 71.659C58.501 71.7372 58.527 71.8152 58.5793 71.8412C59.0478 72.388 56.3923 71.9975 52.9818 71.2945C47.6705 70.2272 40.5633 68.4307 40.5633 68.4307L40.7195 65.8012L40.8235 64.031L41.0578 59.8652L41.3182 55.3352L61.1305 44.9475Z" fill="#F2A007"/>
<path d="M40.0165 58.3813C39.8082 58.3813 39.5738 58.3293 39.3655 58.199C39.2615 58.121 36.8142 56.5068 37.1005 53.4868C37.2567 51.8205 38.0637 50.571 38.142 50.4408C38.5065 49.894 39.2355 49.764 39.756 50.1283C40.3028 50.4928 40.433 51.2218 40.0945 51.7425C40.0685 51.7685 39.5218 52.6278 39.4178 53.7213C39.2615 55.3353 40.6152 56.2465 40.6152 56.2465C41.162 56.611 41.3183 57.314 40.9538 57.8608C40.7715 58.199 40.381 58.3813 40.0165 58.3813Z" fill="#4382FF"/>
<path d="M64.0717 76.293L41.6297 77.9853H35.3815L37.9328 70.8258L38.9222 68.0922L39.3128 67.0247C39.547 66.4 40.0937 65.9312 40.7707 65.8532C40.8747 65.8272 40.979 65.8272 41.083 65.8272L46.1077 65.9573L57.2505 66.2178H57.3548H57.8755C58.1357 66.2178 58.37 66.2697 58.5783 66.3737C58.7865 66.478 58.995 66.6082 59.151 66.7905C59.177 66.8165 59.2033 66.8425 59.2293 66.8685C59.3333 66.9987 59.4115 67.129 59.4895 67.285L61.338 71.4245L61.5462 71.8672L63.7853 74.4185L64.0717 76.293Z" fill="#F6F3F1"/>
<path opacity="0.18" d="M64.0717 76.293L41.6297 77.9853H35.3815L36.8915 71.3465C37.256 71.1642 37.5945 71.008 37.9328 70.8258L38.9222 68.0922L39.3128 67.0247C39.547 66.4 40.0937 65.9312 40.7707 65.8532C40.8747 65.8272 40.979 65.8272 41.083 65.8272C44.884 69.394 51.601 69.9405 58.422 70.3832L61.364 71.4508L61.5723 71.8932L63.8112 74.4445L64.0717 76.293Z" fill="#1E1E1E"/>
<path d="M40.7455 59.2668C39.0013 54.5023 33.3778 46.093 38.3763 39.6625C43.375 33.232 50.4825 28.025 55.9498 29.6913C61.417 31.3575 63.682 32.529 62.4845 36.33C61.2868 40.1313 63.3435 47.6553 62.7968 48.6445C62.25 49.6338 57.9805 51.3 57.616 53.7993C57.2515 56.2988 56.0798 63.1717 52.8775 63.302C50.5085 63.38 46.473 63.0155 44.4945 62.8332C43.7395 62.7552 43.0365 62.3908 42.5158 61.818C41.865 61.089 41.0318 60.0998 40.7455 59.2668Z" fill="#4382FF"/>
<path d="M80.292 80.4068L78.9382 92.721L76.8815 111.336L76.8033 112.091L75.814 121.125L74.4342 133.648V133.699H23.927L21.6099 95.637L20.6727 80.5107C20.6727 76.5275 37.6993 70.956 37.9338 70.826L53.0078 71.3465L58.501 71.685L61.495 71.8672C65.218 74.8612 80.292 75.9548 80.292 80.4068Z" fill="#F6F3F1"/>
<path opacity="0.1" d="M76.8555 111.31L76.7773 112.065L75.788 121.099L74.4082 133.622V133.673H23.927L21.6099 95.611L20.6727 80.5107C20.6727 76.5275 37.6993 70.956 37.9338 70.826L53.0078 71.3465L58.501 71.685L61.495 71.8672C29.5245 81.8645 76.8555 111.31 76.8555 111.31Z" fill="#1E1E1E"/>
<path opacity="0.1" d="M74.4082 133.621L74.252 133.673L23.3544 108.081L24.9946 95.767C26.4785 91.7837 27.7803 90.7945 31.8938 90.7945H62.094C66.624 90.7945 74.4082 133.621 74.4082 133.621Z" fill="#1E1E1E"/>
<path d="M58.7352 51.248C58.3967 51.248 58.1105 51.0395 57.9803 50.7012C57.85 50.2845 58.0582 49.842 58.475 49.7117L64.2025 47.8372C64.619 47.7072 65.0617 47.9155 65.1917 48.332C65.322 48.7485 65.1138 49.1912 64.6973 49.3212L58.9695 51.1957C58.8915 51.2217 58.8132 51.248 58.7352 51.248Z" fill="#1F1E1F"/>
<path d="M18.4599 141.718L26.166 96.8607C26.895 93.9967 29.2643 91.9922 31.9978 91.9922H62.198C64.9318 91.9922 67.3268 93.9967 68.0298 96.8607L77.8188 141.718C56.5745 147.133 42.0733 145.337 18.4599 141.718Z" fill="#4382FF"/>
<path d="M60.7397 58.3815C60.4012 58.3815 60.0627 58.2253 59.8285 57.9388C59.6982 57.7565 58.4745 56.1685 58.735 53.4348C58.8912 51.7685 60.0627 49.9983 60.193 49.816C60.5575 49.2693 61.2862 49.139 61.807 49.5035C62.3537 49.868 62.484 50.597 62.1195 51.1177C61.859 51.5082 61.1562 52.732 61.052 53.643C60.8957 55.4395 61.6247 56.4547 61.6507 56.481C62.0675 56.9755 61.9632 57.7045 61.4685 58.121C61.2342 58.3032 60.974 58.3815 60.7397 58.3815Z" fill="#4382FF"/>
<path d="M187.086 46.1712H186.357C186.279 46.1712 186.227 46.1192 186.227 46.041C186.227 45.963 186.279 45.911 186.357 45.911H187.086C187.164 45.911 187.216 45.963 187.216 46.041C187.216 46.1192 187.164 46.1712 187.086 46.1712ZM185.055 46.1712H183.753C183.675 46.1712 183.623 46.1192 183.623 46.041C183.623 45.963 183.675 45.911 183.753 45.911H185.055C185.133 45.911 185.185 45.963 185.185 46.041C185.185 46.1192 185.133 46.1712 185.055 46.1712ZM182.452 46.1712H181.15C181.072 46.1712 181.02 46.1192 181.02 46.041C181.02 45.963 181.072 45.911 181.15 45.911H182.452C182.53 45.911 182.582 45.963 182.582 46.041C182.582 46.1192 182.53 46.1712 182.452 46.1712ZM179.848 46.1712H178.546C178.468 46.1712 178.416 46.1192 178.416 46.041C178.416 45.963 178.468 45.911 178.546 45.911H179.848C179.926 45.911 179.979 45.963 179.979 46.041C179.979 46.1192 179.926 46.1712 179.848 46.1712ZM177.245 46.1712H175.943C175.865 46.1712 175.813 46.1192 175.813 46.041C175.813 45.963 175.865 45.911 175.943 45.911H177.245C177.323 45.911 177.375 45.963 177.375 46.041C177.375 46.1192 177.323 46.1712 177.245 46.1712ZM174.641 46.1712H173.339C173.261 46.1712 173.21 46.1192 173.21 46.041C173.21 45.963 173.261 45.911 173.339 45.911H174.641C174.719 45.911 174.771 45.963 174.771 46.041C174.771 46.1192 174.719 46.1712 174.641 46.1712ZM172.038 46.1712H170.736C170.658 46.1712 170.606 46.1192 170.606 46.041C170.606 45.963 170.658 45.911 170.736 45.911H172.038C172.116 45.911 172.168 45.963 172.168 46.041C172.168 46.1192 172.116 46.1712 172.038 46.1712ZM169.434 46.1712H168.133C168.055 46.1712 168.003 46.1192 168.003 46.041C168.003 45.963 168.055 45.911 168.133 45.911H169.434C169.512 45.911 169.564 45.963 169.564 46.041C169.564 46.1192 169.512 46.1712 169.434 46.1712ZM166.831 46.1712H165.529C165.451 46.1712 165.399 46.1192 165.399 46.041C165.399 45.963 165.451 45.911 165.529 45.911H166.831C166.909 45.911 166.961 45.963 166.961 46.041C166.961 46.1192 166.909 46.1712 166.831 46.1712ZM164.227 46.1712H162.926C162.848 46.1712 162.796 46.1192 162.796 46.041C162.796 45.963 162.848 45.911 162.926 45.911H164.227C164.305 45.911 164.358 45.963 164.358 46.041C164.358 46.1192 164.305 46.1712 164.227 46.1712ZM161.624 46.1712H160.322C160.244 46.1712 160.192 46.1192 160.192 46.041C160.192 45.963 160.244 45.911 160.322 45.911H161.624C161.702 45.911 161.754 45.963 161.754 46.041C161.754 46.1192 161.702 46.1712 161.624 46.1712ZM159.02 46.1712H157.719C157.641 46.1712 157.589 46.1192 157.589 46.041C157.589 45.963 157.641 45.911 157.719 45.911H159.02C159.099 45.911 159.151 45.963 159.151 46.041C159.151 46.1192 159.099 46.1712 159.02 46.1712ZM156.417 46.1712H155.115C155.037 46.1712 154.985 46.1192 154.985 46.041C154.985 45.963 155.037 45.911 155.115 45.911H156.417C156.495 45.911 156.547 45.963 156.547 46.041C156.547 46.1192 156.495 46.1712 156.417 46.1712ZM153.814 46.1712H152.512C152.434 46.1712 152.382 46.1192 152.382 46.041C152.382 45.963 152.434 45.911 152.512 45.911H153.814C153.892 45.911 153.944 45.963 153.944 46.041C153.944 46.1192 153.892 46.1712 153.814 46.1712ZM151.21 46.1712H149.908C149.83 46.1712 149.778 46.1192 149.778 46.041C149.778 45.963 149.83 45.911 149.908 45.911H151.21C151.288 45.911 151.34 45.963 151.34 46.041C151.34 46.1192 151.288 46.1712 151.21 46.1712ZM148.607 46.1712H147.305C147.227 46.1712 147.175 46.1192 147.175 46.041C147.175 45.963 147.227 45.911 147.305 45.911H148.607C148.685 45.911 148.737 45.963 148.737 46.041C148.737 46.1192 148.685 46.1712 148.607 46.1712ZM146.003 46.1712H144.702C144.623 46.1712 144.571 46.1192 144.571 46.041C144.571 45.963 144.623 45.911 144.702 45.911H146.003C146.081 45.911 146.133 45.963 146.133 46.041C146.133 46.1192 146.081 46.1712 146.003 46.1712ZM143.4 46.1712H142.098C142.02 46.1712 141.968 46.1192 141.968 46.041C141.968 45.963 142.02 45.911 142.098 45.911H143.4C143.478 45.911 143.53 45.963 143.53 46.041C143.53 46.1192 143.478 46.1712 143.4 46.1712ZM140.796 46.1712H139.495C139.417 46.1712 139.365 46.1192 139.365 46.041C139.365 45.963 139.417 45.911 139.495 45.911H140.796C140.875 45.911 140.926 45.963 140.926 46.041C140.926 46.1192 140.875 46.1712 140.796 46.1712ZM138.193 46.1712H136.891C136.813 46.1712 136.761 46.1192 136.761 46.041C136.761 45.963 136.813 45.911 136.891 45.911H138.193C138.271 45.911 138.323 45.963 138.323 46.041C138.323 46.1192 138.271 46.1712 138.193 46.1712ZM135.589 46.1712H134.288C134.21 46.1712 134.158 46.1192 134.158 46.041C134.158 45.963 134.21 45.911 134.288 45.911H135.589C135.667 45.911 135.719 45.963 135.719 46.041C135.719 46.1192 135.667 46.1712 135.589 46.1712ZM132.986 46.1712H131.684C131.606 46.1712 131.554 46.1192 131.554 46.041C131.554 45.963 131.606 45.911 131.684 45.911H132.986C133.064 45.911 133.116 45.963 133.116 46.041C133.116 46.1192 133.064 46.1712 132.986 46.1712ZM130.383 46.1712H129.081C129.002 46.1712 128.951 46.1192 128.951 46.041C128.951 45.963 129.002 45.911 129.081 45.911H130.383C130.461 45.911 130.512 45.963 130.512 46.041C130.512 46.1192 130.461 46.1712 130.383 46.1712ZM127.779 46.1712H126.477C126.399 46.1712 126.347 46.1192 126.347 46.041C126.347 45.963 126.399 45.911 126.477 45.911H127.779C127.857 45.911 127.909 45.963 127.909 46.041C127.909 46.1192 127.857 46.1712 127.779 46.1712ZM125.175 46.1712H123.874C123.796 46.1712 123.743 46.1192 123.743 46.041C123.743 45.963 123.796 45.911 123.874 45.911H125.175C125.253 45.911 125.306 45.963 125.306 46.041C125.306 46.1192 125.253 46.1712 125.175 46.1712ZM122.572 46.1712H121.27C121.192 46.1712 121.14 46.1192 121.14 46.041C121.14 45.963 121.192 45.911 121.27 45.911H122.572C122.65 45.911 122.702 45.963 122.702 46.041C122.702 46.1192 122.65 46.1712 122.572 46.1712ZM119.968 46.1712H118.667C118.589 46.1712 118.537 46.1192 118.537 46.041C118.537 45.963 118.589 45.911 118.667 45.911H119.968C120.047 45.911 120.099 45.963 120.099 46.041C120.099 46.1192 120.047 46.1712 119.968 46.1712ZM117.365 46.1712H116.063C115.985 46.1712 115.933 46.1192 115.933 46.041C115.933 45.963 115.985 45.911 116.063 45.911H117.365C117.443 45.911 117.495 45.963 117.495 46.041C117.495 46.1192 117.443 46.1712 117.365 46.1712ZM114.762 46.1712H113.46C113.382 46.1712 113.33 46.1192 113.33 46.041C113.33 45.963 113.382 45.911 113.46 45.911H114.762C114.84 45.911 114.892 45.963 114.892 46.041C114.892 46.1192 114.84 46.1712 114.762 46.1712ZM112.158 46.1712H110.856C110.778 46.1712 110.726 46.1192 110.726 46.041C110.726 45.963 110.778 45.911 110.856 45.911H112.158C112.236 45.911 112.288 45.963 112.288 46.041C112.288 46.1192 112.236 46.1712 112.158 46.1712ZM109.555 46.1712H108.253C108.175 46.1712 108.123 46.1192 108.123 46.041C108.123 45.963 108.175 45.911 108.253 45.911H109.555C109.633 45.911 109.685 45.963 109.685 46.041C109.685 46.1192 109.633 46.1712 109.555 46.1712ZM106.951 46.1712H105.649C105.571 46.1712 105.519 46.1192 105.519 46.041C105.519 45.963 105.571 45.911 105.649 45.911H106.951C107.029 45.911 107.081 45.963 107.081 46.041C107.081 46.1192 107.029 46.1712 106.951 46.1712ZM104.348 46.1712H103.046C102.968 46.1712 102.916 46.1192 102.916 46.041C102.916 45.963 102.968 45.911 103.046 45.911H104.348C104.426 45.911 104.478 45.963 104.478 46.041C104.478 46.1192 104.426 46.1712 104.348 46.1712ZM101.744 46.1712H100.442C100.364 46.1712 100.312 46.1192 100.312 46.041C100.312 45.963 100.364 45.911 100.442 45.911H101.744C101.822 45.911 101.874 45.963 101.874 46.041C101.874 46.1192 101.822 46.1712 101.744 46.1712ZM99.1407 46.1712H97.8392C97.761 46.1712 97.709 46.1192 97.709 46.041C97.709 45.963 97.761 45.911 97.8392 45.911H99.1407C99.219 45.911 99.271 45.963 99.271 46.041C99.271 46.1192 99.219 46.1712 99.1407 46.1712ZM96.5375 46.1712H95.2357C95.1575 46.1712 95.1055 46.1192 95.1055 46.041C95.1055 45.963 95.1575 45.911 95.2357 45.911H96.5375C96.6155 45.911 96.6675 45.963 96.6675 46.041C96.6675 46.1192 96.6155 46.1712 96.5375 46.1712ZM93.934 46.1712H92.6322C92.554 46.1712 92.502 46.1192 92.502 46.041C92.502 45.963 92.554 45.911 92.6322 45.911H93.934C94.012 45.911 94.064 45.963 94.064 46.041C94.064 46.1192 94.012 46.1712 93.934 46.1712ZM91.3305 46.1712H90.0287C89.9507 46.1712 89.8985 46.1192 89.8985 46.041C89.8985 45.963 89.9507 45.911 90.0287 45.911H91.3305C91.4085 45.911 91.4607 45.963 91.4607 46.041C91.4607 46.1192 91.4085 46.1712 91.3305 46.1712ZM88.727 46.1712H87.4252C87.3472 46.1712 87.295 46.1192 87.295 46.041C87.295 45.963 87.3472 45.911 87.4252 45.911H88.727C88.805 45.911 88.8572 45.963 88.8572 46.041C88.8572 46.1192 88.805 46.1712 88.727 46.1712ZM86.1235 46.1712H84.8217C84.7437 46.1712 84.6917 46.1192 84.6917 46.041C84.6917 45.963 84.7437 45.911 84.8217 45.911H86.1235C86.2017 45.911 86.2538 45.963 86.2538 46.041C86.2538 46.1192 86.2017 46.1712 86.1235 46.1712Z" fill="#1F1E1F"/>
<path d="M147.695 5.01035H146.394C146.316 5.01035 146.264 4.95828 146.264 4.88018C146.264 4.80208 146.316 4.75 146.394 4.75H147.695C147.773 4.75 147.826 4.80208 147.826 4.88018C147.826 4.95828 147.773 5.01035 147.695 5.01035ZM145.092 5.01035H143.79C143.712 5.01035 143.66 4.95828 143.66 4.88018C143.66 4.80208 143.712 4.75 143.79 4.75H145.092C145.17 4.75 145.222 4.80208 145.222 4.88018C145.222 4.95828 145.17 5.01035 145.092 5.01035ZM142.488 5.01035H141.187C141.109 5.01035 141.057 4.95828 141.057 4.88018C141.057 4.80208 141.109 4.75 141.187 4.75H142.488C142.567 4.75 142.619 4.80208 142.619 4.88018C142.619 4.95828 142.567 5.01035 142.488 5.01035ZM139.885 5.01035H138.583C138.505 5.01035 138.453 4.95828 138.453 4.88018C138.453 4.80208 138.505 4.75 138.583 4.75H139.885C139.963 4.75 140.015 4.80208 140.015 4.88018C140.015 4.95828 139.963 5.01035 139.885 5.01035ZM137.282 5.01035H135.98C135.902 5.01035 135.85 4.95828 135.85 4.88018C135.85 4.80208 135.902 4.75 135.98 4.75H137.282C137.36 4.75 137.412 4.80208 137.412 4.88018C137.412 4.95828 137.36 5.01035 137.282 5.01035ZM134.678 5.01035H133.376C133.298 5.01035 133.246 4.95828 133.246 4.88018C133.246 4.80208 133.298 4.75 133.376 4.75H134.678C134.756 4.75 134.808 4.80208 134.808 4.88018C134.808 4.95828 134.756 5.01035 134.678 5.01035ZM132.075 5.01035H130.773C130.695 5.01035 130.643 4.95828 130.643 4.88018C130.643 4.80208 130.695 4.75 130.773 4.75H132.075C132.153 4.75 132.205 4.80208 132.205 4.88018C132.205 4.95828 132.153 5.01035 132.075 5.01035ZM129.471 5.01035H128.169C128.091 5.01035 128.039 4.95828 128.039 4.88018C128.039 4.80208 128.091 4.75 128.169 4.75H129.471C129.549 4.75 129.602 4.80208 129.602 4.88018C129.602 4.95828 129.549 5.01035 129.471 5.01035ZM126.868 5.01035H125.566C125.488 5.01035 125.436 4.95828 125.436 4.88018C125.436 4.80208 125.488 4.75 125.566 4.75H126.868C126.946 4.75 126.998 4.80208 126.998 4.88018C126.998 4.95828 126.946 5.01035 126.868 5.01035ZM124.264 5.01035H122.963C122.885 5.01035 122.832 4.95828 122.832 4.88018C122.832 4.80208 122.885 4.75 122.963 4.75H124.264C124.343 4.75 124.395 4.80208 124.395 4.88018C124.395 4.95828 124.343 5.01035 124.264 5.01035ZM121.661 5.01035H120.359C120.281 5.01035 120.229 4.95828 120.229 4.88018C120.229 4.80208 120.281 4.75 120.359 4.75H121.661C121.739 4.75 121.791 4.80208 121.791 4.88018C121.791 4.95828 121.739 5.01035 121.661 5.01035ZM119.058 5.01035H117.756C117.678 5.01035 117.626 4.95828 117.626 4.88018C117.626 4.80208 117.678 4.75 117.756 4.75H119.058C119.136 4.75 119.188 4.80208 119.188 4.88018C119.188 4.95828 119.136 5.01035 119.058 5.01035ZM116.454 5.01035H115.152C115.074 5.01035 115.022 4.95828 115.022 4.88018C115.022 4.80208 115.074 4.75 115.152 4.75H116.454C116.532 4.75 116.584 4.80208 116.584 4.88018C116.584 4.95828 116.532 5.01035 116.454 5.01035ZM113.851 5.01035H112.549C112.471 5.01035 112.419 4.95828 112.419 4.88018C112.419 4.80208 112.471 4.75 112.549 4.75H113.851C113.929 4.75 113.981 4.80208 113.981 4.88018C113.981 4.95828 113.929 5.01035 113.851 5.01035ZM111.247 5.01035H109.945C109.867 5.01035 109.815 4.95828 109.815 4.88018C109.815 4.80208 109.867 4.75 109.945 4.75H111.247C111.325 4.75 111.377 4.80208 111.377 4.88018C111.377 4.95828 111.325 5.01035 111.247 5.01035ZM108.644 5.01035H107.342C107.264 5.01035 107.212 4.95828 107.212 4.88018C107.212 4.80208 107.264 4.75 107.342 4.75H108.644C108.722 4.75 108.774 4.80208 108.774 4.88018C108.774 4.95828 108.722 5.01035 108.644 5.01035ZM106.04 5.01035H104.738C104.66 5.01035 104.608 4.95828 104.608 4.88018C104.608 4.80208 104.66 4.75 104.738 4.75H106.04C106.118 4.75 106.17 4.80208 106.17 4.88018C106.17 4.95828 106.118 5.01035 106.04 5.01035ZM103.437 5.01035H102.135C102.057 5.01035 102.005 4.95828 102.005 4.88018C102.005 4.80208 102.057 4.75 102.135 4.75H103.437C103.515 4.75 103.567 4.80208 103.567 4.88018C103.567 4.95828 103.515 5.01035 103.437 5.01035ZM100.833 5.01035H99.5315C99.4533 5.01035 99.4013 4.95828 99.4013 4.88018C99.4013 4.80208 99.4533 4.75 99.5315 4.75H100.833C100.911 4.75 100.963 4.80208 100.963 4.88018C100.963 4.95828 100.911 5.01035 100.833 5.01035ZM98.2298 5.01035H96.928C96.8498 5.01035 96.7978 4.95828 96.7978 4.88018C96.7978 4.80208 96.8498 4.75 96.928 4.75H98.2298C98.3078 4.75 98.3597 4.80208 98.3597 4.88018C98.3597 4.95828 98.3078 5.01035 98.2298 5.01035ZM95.6263 5.01035H94.3245C94.2465 5.01035 94.1943 4.95828 94.1943 4.88018C94.1943 4.80208 94.2465 4.75 94.3245 4.75H95.6263C95.7043 4.75 95.7565 4.80208 95.7565 4.88018C95.7565 4.95828 95.7043 5.01035 95.6263 5.01035ZM93.0228 5.01035H91.721C91.643 5.01035 91.5908 4.95828 91.5908 4.88018C91.5908 4.80208 91.643 4.75 91.721 4.75H93.0228C93.101 4.75 93.153 4.80208 93.153 4.88018C93.153 4.95828 93.101 5.01035 93.0228 5.01035ZM90.4193 5.01035H89.1175C89.0395 5.01035 88.9875 4.95828 88.9875 4.88018C88.9875 4.80208 89.0395 4.75 89.1175 4.75H90.4193C90.4975 4.75 90.5495 4.80208 90.5495 4.88018C90.5495 4.95828 90.4975 5.01035 90.4193 5.01035ZM87.8158 5.01035H86.514C86.436 5.01035 86.384 4.95828 86.384 4.88018C86.384 4.80208 86.436 4.75 86.514 4.75H87.8158C87.894 4.75 87.946 4.80208 87.946 4.88018C87.946 4.95828 87.894 5.01035 87.8158 5.01035ZM85.2125 5.01035H83.9108C83.8325 5.01035 83.7805 4.95828 83.7805 4.88018C83.7805 4.80208 83.8325 4.75 83.9108 4.75H85.2125C85.2905 4.75 85.3425 4.80208 85.3425 4.88018C85.3425 4.95828 85.2905 5.01035 85.2125 5.01035ZM82.609 5.01035H81.3073C81.229 5.01035 81.177 4.95828 81.177 4.88018C81.177 4.80208 81.229 4.75 81.3073 4.75H82.609C82.687 4.75 82.739 4.80208 82.739 4.88018C82.739 4.95828 82.687 5.01035 82.609 5.01035ZM80.0055 5.01035H78.7038C78.6255 5.01035 78.5735 4.95828 78.5735 4.88018C78.5735 4.80208 78.6255 4.75 78.7038 4.75H80.0055C80.0835 4.75 80.1357 4.80208 80.1357 4.88018C80.1357 4.95828 80.0835 5.01035 80.0055 5.01035ZM77.402 5.01035H76.1003C76.0223 5.01035 75.97 4.95828 75.97 4.88018C75.97 4.80208 76.0223 4.75 76.1003 4.75H77.402C77.48 4.75 77.5322 4.80208 77.5322 4.88018C77.5322 4.95828 77.48 5.01035 77.402 5.01035ZM74.7985 5.01035H73.4967C73.4187 5.01035 73.3665 4.95828 73.3665 4.88018C73.3665 4.80208 73.4187 4.75 73.4967 4.75H74.7985C74.8767 4.75 74.9287 4.80208 74.9287 4.88018C74.9287 4.95828 74.8767 5.01035 74.7985 5.01035ZM72.195 5.01035H70.8932C70.8152 5.01035 70.7633 4.95828 70.7633 4.88018C70.7633 4.80208 70.8152 4.75 70.8932 4.75H72.195C72.2732 4.75 72.3252 4.80208 72.3252 4.88018C72.3252 4.95828 72.2732 5.01035 72.195 5.01035ZM69.5915 5.01035H68.2897C68.2117 5.01035 68.1598 4.95828 68.1598 4.88018C68.1598 4.80208 68.2117 4.75 68.2897 4.75H69.5915C69.6697 4.75 69.7217 4.80208 69.7217 4.88018C69.7217 4.95828 69.6697 5.01035 69.5915 5.01035ZM66.9883 5.01035H65.6865C65.6083 5.01035 65.5563 4.95828 65.5563 4.88018C65.5563 4.80208 65.6083 4.75 65.6865 4.75H66.9883C67.0663 4.75 67.1182 4.80208 67.1182 4.88018C67.1182 4.95828 67.0663 5.01035 66.9883 5.01035ZM64.3848 5.01035H63.083C63.0048 5.01035 62.9528 4.95828 62.9528 4.88018C62.9528 4.80208 63.0048 4.75 63.083 4.75H64.3848C64.4628 4.75 64.5147 4.80208 64.5147 4.88018C64.5147 4.95828 64.4628 5.01035 64.3848 5.01035ZM61.7812 5.01035H60.4795C60.4012 5.01035 60.3493 4.95828 60.3493 4.88018C60.3493 4.80208 60.4012 4.75 60.4795 4.75H61.7812C61.8592 4.75 61.9115 4.80208 61.9115 4.88018C61.9115 4.95828 61.8592 5.01035 61.7812 5.01035Z" fill="#F6F3F1"/>
<path d="M180.214 52.3672H178.756V53.8252H180.214V52.3672Z" fill="#F6F3F1"/>
<path d="M181.671 53.8512H180.214V55.3092H181.671V53.8512Z" fill="#F6F3F1"/>
<path d="M183.13 55.309H181.671V56.767H183.13V55.309Z" fill="#F6F3F1"/>
<path d="M184.613 56.767H183.156V58.225H184.613V56.767Z" fill="#F6F3F1"/>
<path d="M181.671 50.9095H180.214V52.3672H181.671V50.9095Z" fill="#F6F3F1"/>
<path d="M183.13 52.3672H181.673V53.8252H183.13V52.3672Z" fill="#F6F3F1"/>
<path d="M184.614 53.8512H183.156V55.3092H184.614V53.8512Z" fill="#F6F3F1"/>
<path d="M186.071 55.3092H184.613V56.7673H186.071V55.3092Z" fill="#F6F3F1"/>
<path d="M172.143 86.1083H145.093C144.806 86.1083 144.572 85.874 144.572 85.5875C144.572 85.3013 144.806 85.067 145.093 85.067H172.143C172.429 85.067 172.663 85.3013 172.663 85.5875C172.663 85.874 172.429 86.1083 172.143 86.1083Z" fill="#4382FF"/>
<path d="M158.423 90.8725C157.589 90.8725 156.913 90.1958 156.913 89.3625C156.913 88.5295 157.589 87.8525 158.423 87.8525C159.256 87.8525 159.932 88.5295 159.932 89.3625C159.932 90.1958 159.256 90.8725 158.423 90.8725ZM158.423 88.139C157.746 88.139 157.173 88.6858 157.173 89.3885C157.173 90.0915 157.72 90.6383 158.423 90.6383C159.125 90.6383 159.672 90.0915 159.672 89.3885C159.672 88.6858 159.125 88.139 158.423 88.139Z" fill="#F6F3F1"/>
<path d="M162.275 90.7423C163.023 90.7423 163.629 90.1363 163.629 89.3885C163.629 88.6408 163.023 88.0348 162.275 88.0348C161.528 88.0348 160.921 88.6408 160.921 89.3885C160.921 90.1363 161.528 90.7423 162.275 90.7423Z" fill="#F6F3F1"/>
<path d="M175.684 73.117C176.432 73.117 177.038 72.511 177.038 71.7633C177.038 71.0155 176.432 70.4095 175.684 70.4095C174.936 70.4095 174.33 71.0155 174.33 71.7633C174.33 72.511 174.936 73.117 175.684 73.117Z" fill="#F6F3F1"/>
<path d="M34.1855 50.3107H11.7696C11.4833 50.3107 11.2489 50.0763 11.2489 49.79C11.2489 49.5035 11.4833 49.2692 11.7696 49.2692H34.1855C34.4717 49.2692 34.7062 49.5035 34.7062 49.79C34.7062 50.0763 34.4717 50.3107 34.1855 50.3107Z" fill="#4382FF"/>
<path d="M10.3895 55.075C9.55642 55.075 8.87952 54.398 8.87952 53.565C8.87952 52.7317 9.55642 52.055 10.3895 52.055C11.2226 52.055 11.8995 52.7317 11.8995 53.565C11.8995 54.398 11.2226 55.075 10.3895 55.075ZM10.3895 52.3413C9.71262 52.3413 9.13987 52.888 9.13987 53.591C9.13987 54.294 9.6866 54.8408 10.3895 54.8408C11.0924 54.8408 11.6392 54.294 11.6392 53.591C11.6392 52.888 11.0924 52.3413 10.3895 52.3413Z" fill="#1A224F"/>
<path d="M14.2423 54.9448C14.99 54.9448 15.5962 54.3385 15.5962 53.5908C15.5962 52.8433 14.99 52.237 14.2423 52.237C13.4947 52.237 12.8885 52.8433 12.8885 53.5908C12.8885 54.3385 13.4947 54.9448 14.2423 54.9448Z" fill="#F6F3F1"/>
<path d="M18.0436 54.9448C18.7913 54.9448 19.3974 54.3385 19.3974 53.5908C19.3974 52.8433 18.7913 52.237 18.0436 52.237C17.2959 52.237 16.6898 52.8433 16.6898 53.5908C16.6898 54.3385 17.2959 54.9448 18.0436 54.9448Z" fill="#1F1E1F"/>
<path d="M110.206 110.919C110.206 109.175 112.288 107.795 114.892 107.795C117.469 107.795 119.578 109.201 119.578 110.919" fill="#F6F3F1"/>
<path d="M70.113 67.7278C70.035 67.7278 69.9827 67.6757 69.9827 67.5977V48.0978C69.9827 48.0195 70.035 47.9675 70.113 47.9675C70.1912 47.9675 70.2432 48.0195 70.2432 48.0978V67.5977C70.2432 67.6757 70.1912 67.7278 70.113 67.7278Z" fill="#4382FF"/>
<path d="M68.369 71.2425C68.291 71.2425 68.239 71.1905 68.239 71.1123V51.6123C68.239 51.5343 68.291 51.4823 68.369 51.4823C68.4473 51.4823 68.4993 51.5343 68.4993 51.6123V71.1123C68.4993 71.1905 68.4213 71.2425 68.369 71.2425Z" fill="#4382FF"/>
<path d="M119.683 84.8325H100.183C100.105 84.8325 100.053 84.7805 100.053 84.7025C100.053 84.6242 100.105 84.5723 100.183 84.5723H119.683C119.761 84.5723 119.813 84.6242 119.813 84.7025C119.813 84.7805 119.761 84.8325 119.683 84.8325Z" fill="#1F1E1F"/>
<path d="M123.223 86.6028H100.313C100.235 86.6028 100.183 86.5505 100.183 86.4725C100.183 86.3943 100.235 86.3423 100.313 86.3423H123.223C123.301 86.3423 123.354 86.3943 123.354 86.4725C123.354 86.5505 123.275 86.6028 123.223 86.6028Z" fill="#1F1E1F"/>
<path d="M20.9597 62.651H13.0712C12.4464 62.651 11.9257 62.1303 11.9257 61.5055C11.9257 60.8805 12.4464 60.3597 13.0712 60.3597H20.9597C21.5845 60.3597 22.1052 60.8805 22.1052 61.5055C22.1052 62.1303 21.5845 62.651 20.9597 62.651ZM13.0712 60.6203C12.5765 60.6203 12.186 61.0108 12.186 61.5055C12.186 62 12.5765 62.3905 13.0712 62.3905H20.9597C21.4543 62.3905 21.8449 62 21.8449 61.5055C21.8449 61.0108 21.4543 60.6203 20.9597 60.6203H13.0712Z" fill="#4382FF"/>
<path d="M26.5833 67.2333H18.6947C18.0699 67.2333 17.5492 66.7125 17.5492 66.0878C17.5492 65.4628 18.0699 64.9423 18.6947 64.9423H26.5833C27.208 64.9423 27.7288 65.4628 27.7288 66.0878C27.7028 66.7125 27.208 67.2333 26.5833 67.2333ZM18.6947 65.2285C18.2001 65.2285 17.8096 65.619 17.8096 66.1137C17.8096 66.6082 18.2001 66.999 18.6947 66.999H26.5833C27.0778 66.999 27.4685 66.6082 27.4685 66.1137C27.4685 65.619 27.0778 65.2285 26.5833 65.2285H18.6947Z" fill="#4382FF"/>
<path d="M26.5833 70.227H18.6947C18.0699 70.227 17.5492 69.7065 17.5492 69.0815C17.5492 68.4567 18.0699 67.936 18.6947 67.936H26.5833C27.208 67.936 27.7288 68.4567 27.7288 69.0815C27.7028 69.7325 27.208 70.227 26.5833 70.227ZM18.6947 68.2225C18.2001 68.2225 17.8096 68.613 17.8096 69.1075C17.8096 69.6022 18.2001 69.9928 18.6947 69.9928H26.5833C27.0778 69.9928 27.4685 69.6022 27.4685 69.1075C27.4685 68.613 27.0778 68.2225 26.5833 68.2225H18.6947Z" fill="#4382FF"/>
<path d="M26.5833 73.247H18.6947C18.0699 73.247 17.5492 72.7265 17.5492 72.1015C17.5492 71.4768 18.0699 70.956 18.6947 70.956H26.5833C27.208 70.956 27.7288 71.4768 27.7288 72.1015C27.7288 72.7265 27.208 73.247 26.5833 73.247ZM18.6947 71.2165C18.2001 71.2165 17.8096 71.607 17.8096 72.1015C17.8096 72.5963 18.2001 72.9867 18.6947 72.9867H26.5833C27.0778 72.9867 27.4685 72.5963 27.4685 72.1015C27.4685 71.607 27.0778 71.2165 26.5833 71.2165H18.6947Z" fill="#4382FF"/>
<path d="M32.4147 62.521H24.5263C23.9796 62.521 23.511 62.0783 23.511 61.5055C23.511 60.9588 23.9536 60.4902 24.5263 60.4902H32.4147C32.9615 60.4902 33.4302 60.9328 33.4302 61.5055C33.4302 62.0523 32.9875 62.521 32.4147 62.521Z" fill="#1F1E1F"/>
<path d="M15.7266 66.9467C16.2011 66.9467 16.5857 66.5623 16.5857 66.0878C16.5857 65.6133 16.2011 65.2285 15.7266 65.2285C15.2521 65.2285 14.8674 65.6133 14.8674 66.0878C14.8674 66.5623 15.2521 66.9467 15.7266 66.9467Z" fill="#1F1E1F"/>
<path d="M15.7266 69.9665C16.2011 69.9665 16.5857 69.582 16.5857 69.1075C16.5857 68.633 16.2011 68.2483 15.7266 68.2483C15.2521 68.2483 14.8674 68.633 14.8674 69.1075C14.8674 69.582 15.2521 69.9665 15.7266 69.9665Z" fill="#1F1E1F"/>
<path d="M15.7266 72.9607C16.2011 72.9607 16.5857 72.576 16.5857 72.1015C16.5857 71.627 16.2011 71.2425 15.7266 71.2425C15.2521 71.2425 14.8674 71.627 14.8674 72.1015C14.8674 72.576 15.2521 72.9607 15.7266 72.9607Z" fill="#1F1E1F"/>
<path d="M182.141 20.3449H174.252C173.705 20.3449 173.237 19.9023 173.237 19.3296C173.237 18.7828 173.679 18.3142 174.252 18.3142H182.141C182.687 18.3142 183.156 18.7568 183.156 19.3296C183.156 19.8763 182.687 20.3449 182.141 20.3449Z" fill="#F6F3F1"/>
<path d="M182.141 23.3388H174.252C173.705 23.3388 173.237 22.8962 173.237 22.3234C173.237 21.7767 173.679 21.3081 174.252 21.3081H182.141C182.687 21.3081 183.156 21.7507 183.156 22.3234C183.156 22.8962 182.687 23.3388 182.141 23.3388Z" fill="#1F1E1F"/>
<path d="M182.141 26.3587H174.252C173.705 26.3587 173.237 25.9163 173.237 25.3435C173.237 24.7968 173.679 24.3281 174.252 24.3281H182.141C182.687 24.3281 183.156 24.7707 183.156 25.3435C183.156 25.8903 182.687 26.3587 182.141 26.3587Z" fill="#4382FF"/>
<path d="M171.283 20.1888C171.758 20.1888 172.143 19.8041 172.143 19.3296C172.143 18.8551 171.758 18.4705 171.283 18.4705C170.809 18.4705 170.424 18.8551 170.424 19.3296C170.424 19.8041 170.809 20.1888 171.283 20.1888Z" fill="#1F1E1F"/>
<path d="M171.283 23.2085C171.758 23.2085 172.143 22.8239 172.143 22.3494C172.143 21.8749 171.758 21.4902 171.283 21.4902C170.809 21.4902 170.424 21.8749 170.424 22.3494C170.424 22.8239 170.809 23.2085 171.283 23.2085Z" fill="#1F1E1F"/>
<path d="M171.283 26.2025C171.758 26.2025 172.143 25.8177 172.143 25.3432C172.143 24.8688 171.758 24.4841 171.283 24.4841C170.809 24.4841 170.424 24.8688 170.424 25.3432C170.424 25.8177 170.809 26.2025 171.283 26.2025Z" fill="#1F1E1F"/>
<path d="M168.003 14.1746C167.925 14.1746 167.873 14.1225 167.873 14.0444C167.873 13.9663 167.925 13.9142 168.003 13.9142H169.305C169.383 13.9142 169.435 13.9663 169.435 14.0444C169.435 14.1225 169.383 14.1746 169.305 14.1746H168.003ZM170.607 14.1746C170.529 14.1746 170.477 14.1225 170.477 14.0444C170.477 13.9663 170.529 13.9142 170.607 13.9142H171.909C171.987 13.9142 172.039 13.9663 172.039 14.0444C172.039 14.1225 171.987 14.1746 171.909 14.1746H170.607ZM173.21 14.1746C173.132 14.1746 173.08 14.1225 173.08 14.0444C173.08 13.9663 173.132 13.9142 173.21 13.9142H174.512C174.59 13.9142 174.642 13.9663 174.642 14.0444C174.642 14.1225 174.59 14.1746 174.512 14.1746H173.21ZM175.814 14.1485C175.736 14.1485 175.684 14.0965 175.684 14.0184C175.684 13.9403 175.736 13.8882 175.814 13.8882H177.115C177.194 13.8882 177.246 13.9403 177.246 14.0184C177.246 14.0965 177.194 14.1485 177.115 14.1485H175.814ZM178.417 14.1485C178.339 14.1485 178.287 14.0965 178.287 14.0184C178.287 13.9403 178.339 13.8882 178.417 13.8882H179.719C179.797 13.8882 179.849 13.9403 179.849 14.0184C179.849 14.0965 179.797 14.1485 179.719 14.1485H178.417Z" fill="#F6F3F1"/>
<path d="M168.003 15.6065C167.925 15.6065 167.873 15.5544 167.873 15.4763C167.873 15.3982 167.925 15.3461 168.003 15.3461L179.98 15.3201C180.058 15.3201 180.109 15.3722 180.109 15.4503C180.109 15.5284 180.058 15.5804 179.98 15.5804L168.003 15.6065Z" fill="#4382FF"/>
<path d="M168.003 29.8215C167.925 29.8215 167.873 29.7693 167.873 29.6913C167.873 29.613 167.925 29.561 168.003 29.561H169.305C169.383 29.561 169.435 29.613 169.435 29.6913C169.435 29.7693 169.383 29.8215 169.305 29.8215H168.003ZM170.607 29.8215C170.529 29.8215 170.477 29.7693 170.477 29.6913C170.477 29.613 170.529 29.561 170.607 29.561H171.909C171.987 29.561 172.039 29.613 172.039 29.6913C172.039 29.7693 171.987 29.8215 171.909 29.8215H170.607ZM173.21 29.8215C173.132 29.8215 173.08 29.7693 173.08 29.6913C173.08 29.613 173.132 29.561 173.21 29.561H174.512C174.59 29.561 174.642 29.613 174.642 29.6913C174.642 29.7693 174.59 29.8215 174.512 29.8215H173.21ZM175.814 29.8215C175.736 29.8215 175.684 29.7693 175.684 29.6913C175.684 29.613 175.736 29.561 175.814 29.561H177.115C177.194 29.561 177.246 29.613 177.246 29.6913C177.246 29.7693 177.194 29.8215 177.115 29.8215H175.814ZM178.417 29.8215C178.339 29.8215 178.287 29.7693 178.287 29.6913C178.287 29.613 178.339 29.561 178.417 29.561H179.719C179.797 29.561 179.849 29.613 179.849 29.6913C179.849 29.7693 179.797 29.8215 179.719 29.8215H178.417Z" fill="#F6F3F1"/>
<path d="M168.003 31.2535C167.925 31.2535 167.873 31.2012 167.873 31.1232C167.873 31.0452 167.925 30.993 168.003 30.993L179.98 30.967C180.058 30.967 180.109 31.019 180.109 31.0972C180.109 31.1752 180.058 31.2275 179.98 31.2275L168.003 31.2535Z" fill="#4382FF"/>
<path d="M94.1943 90.6125C94.1163 90.6125 94.0642 90.5605 94.0642 90.4822C94.0642 90.4042 94.1163 90.3522 94.1943 90.3522H95.496C95.5743 90.3522 95.6263 90.4042 95.6263 90.4822C95.6263 90.5605 95.5743 90.6125 95.496 90.6125H94.1943ZM96.7978 90.5865C96.7198 90.5865 96.6675 90.5345 96.6675 90.4563C96.6675 90.3783 96.7198 90.3262 96.7978 90.3262H98.0995C98.1775 90.3262 98.2298 90.3783 98.2298 90.4563C98.2298 90.5345 98.1775 90.5865 98.0995 90.5865H96.7978ZM99.4013 90.5865C99.3233 90.5865 99.271 90.5345 99.271 90.4563C99.271 90.3783 99.3233 90.3262 99.4013 90.3262H100.703C100.781 90.3262 100.833 90.3783 100.833 90.4563C100.833 90.5345 100.781 90.5865 100.703 90.5865H99.4013ZM102.005 90.5865C101.927 90.5865 101.874 90.5345 101.874 90.4563C101.874 90.3783 101.927 90.3262 102.005 90.3262H103.307C103.385 90.3262 103.437 90.3783 103.437 90.4563C103.437 90.5345 103.385 90.5865 103.307 90.5865H102.005ZM104.608 90.5865C104.53 90.5865 104.478 90.5345 104.478 90.4563C104.478 90.3783 104.53 90.3262 104.608 90.3262H105.91C105.988 90.3262 106.04 90.3783 106.04 90.4563C106.04 90.5345 105.988 90.5865 105.91 90.5865H104.608Z" fill="#F6F3F1"/>
<path d="M94.1943 92.0443C94.1163 92.0443 94.0642 91.992 94.0642 91.914C94.0642 91.836 94.1163 91.7838 94.1943 91.7838L106.17 91.7578C106.248 91.7578 106.3 91.81 106.3 91.888C106.3 91.966 106.248 92.0182 106.17 92.0182L94.1943 92.0443Z" fill="#1F1E1F"/>
<path d="M190.523 89.5185H166.077V89.2582H190.523C191.226 89.2582 191.799 88.6855 191.799 87.9825V73.1687C191.799 72.466 191.226 71.8932 190.523 71.8932H176.803V71.6328H190.523C191.383 71.6328 192.06 72.3097 192.06 73.1687V87.9825C192.06 88.8157 191.357 89.5185 190.523 89.5185Z" fill="#F6F3F1"/>
<path d="M166.077 90.7423C166.825 90.7423 167.431 90.1363 167.431 89.3885C167.431 88.6408 166.825 88.0348 166.077 88.0348C165.33 88.0348 164.724 88.6408 164.724 89.3885C164.724 90.1363 165.33 90.7423 166.077 90.7423Z" fill="#1F1E1F"/>
<path d="M169.357 93.7888H158.11C158.032 93.7888 157.98 93.7365 157.98 93.6585C157.98 93.5805 158.032 93.5283 158.11 93.5283H169.357C169.435 93.5283 169.487 93.5805 169.487 93.6585C169.487 93.7365 169.435 93.7888 169.357 93.7888Z" fill="#F6F3F1"/>
<path d="M169.357 95.168H158.11C158.032 95.168 157.98 95.116 157.98 95.038C157.98 94.9597 158.032 94.9077 158.11 94.9077H169.357C169.435 94.9077 169.487 94.9597 169.487 95.038C169.487 95.116 169.435 95.168 169.357 95.168Z" fill="#F6F3F1"/>
<path d="M182.999 93.7888H171.753C171.674 93.7888 171.622 93.7365 171.622 93.6585C171.622 93.5805 171.674 93.5283 171.753 93.5283H182.999C183.077 93.5283 183.13 93.5805 183.13 93.6585C183.13 93.7365 183.077 93.7888 182.999 93.7888Z" fill="#F6F3F1"/>
<path d="M182.999 95.168H171.753C171.674 95.168 171.622 95.116 171.622 95.038C171.622 94.9597 171.674 94.9077 171.753 94.9077H182.999C183.077 94.9077 183.13 94.9597 183.13 95.038C183.13 95.116 183.077 95.168 182.999 95.168Z" fill="#F6F3F1"/>
<path d="M196.641 93.7888H185.394C185.316 93.7888 185.264 93.7365 185.264 93.6585C185.264 93.5805 185.316 93.5283 185.394 93.5283H196.641C196.719 93.5283 196.771 93.5805 196.771 93.6585C196.771 93.7365 196.719 93.7888 196.641 93.7888Z" fill="#F6F3F1"/>
<path d="M196.641 95.168H185.394C185.316 95.168 185.264 95.116 185.264 95.038C185.264 94.9597 185.316 94.9077 185.394 94.9077H196.641C196.719 94.9077 196.771 94.9597 196.771 95.038C196.771 95.116 196.719 95.168 196.641 95.168Z" fill="#F6F3F1"/>
<path opacity="0.25" d="M189.091 80.3548H185.915C185.394 80.3548 184.978 79.9383 184.978 79.4175V77.6472C184.978 77.1265 185.394 76.71 185.915 76.71H189.091C189.612 76.71 190.028 77.1265 190.028 77.6472V79.3915C190.028 79.9123 189.612 80.3548 189.091 80.3548Z" fill="white"/>
<path opacity="0.25" d="M195.131 80.3548H191.955C191.435 80.3548 191.018 79.9383 191.018 79.4175V77.6472C191.018 77.1265 191.435 76.71 191.955 76.71H195.131C195.652 76.71 196.068 77.1265 196.068 77.6472V79.3915C196.094 79.9123 195.652 80.3548 195.131 80.3548Z" fill="white"/>
<path opacity="0.25" d="M182.426 63.5623H179.25C178.729 63.5623 178.313 63.1455 178.313 62.625V60.8805C178.313 60.36 178.729 59.9433 179.25 59.9433H182.426C182.947 59.9433 183.364 60.36 183.364 60.8805V62.625C183.39 63.1455 182.973 63.5623 182.426 63.5623Z" fill="white"/>
<path opacity="0.25" d="M188.493 63.5623H185.316C184.796 63.5623 184.379 63.1455 184.379 62.625V60.8805C184.379 60.36 184.796 59.9433 185.316 59.9433H188.493C189.014 59.9433 189.43 60.36 189.43 60.8805V62.625C189.456 63.1455 189.014 63.5623 188.493 63.5623Z" fill="white"/>
<path opacity="0.25" d="M189.43 86.8112H186.697C186.046 86.8112 185.525 86.2907 185.525 85.6397V82.4635C185.525 81.8127 186.046 81.292 186.697 81.292H189.43C190.081 81.292 190.602 81.8127 190.602 82.4635V85.6397C190.576 86.2907 190.055 86.8112 189.43 86.8112Z" fill="white"/>
<path opacity="0.25" d="M195.469 86.8112H192.736C192.085 86.8112 191.564 86.2907 191.564 85.6397V82.4635C191.564 81.8127 192.085 81.292 192.736 81.292H195.469C196.12 81.292 196.641 81.8127 196.641 82.4635V85.6397C196.641 86.2907 196.12 86.8112 195.469 86.8112Z" fill="white"/>
</svg>
